<?xml version="1.0" encoding="UTF-8"?>
<svg xmlns="http://www.w3.org/2000/svg" xmlns:xlink="http://www.w3.org/1999/xlink" width="658.25pt" height="163.28pt" viewBox="0 0 658.25 163.28" version="1.1">
<defs>
<clipPath id="clip1">
  <path d="M 146 0 L 257 0 L 257 163.28125 L 146 163.28125 Z M 146 0 "/>
</clipPath>
<clipPath id="clip2">
  <path d="M 547 3 L 658.25 3 L 658.25 160 L 547 160 Z M 547 3 "/>
</clipPath>
</defs>
<g id="surface1">
<path style=" stroke:none;fill-rule:nonzero;fill:rgb(0%,68.199158%,93.699646%);fill-opacity:1;" d="M 0 153.035156 L 8.6875 153.035156 C 19.824219 153.035156 21.609375 149.691406 21.609375 137.441406 L 21.609375 25.167969 C 21.609375 12.917969 20.046875 9.578125 8.6875 9.578125 L 0 9.578125 L 0 3.5625 L 126.082031 3.5625 L 127.640625 51.011719 L 121.851563 51.011719 C 117.394531 18.488281 103.804688 9.578125 71.730469 9.578125 C 45.441406 9.578125 42.101563 9.578125 42.101563 31.628906 L 42.101563 73.730469 L 57.027344 73.730469 C 79.523438 73.730469 86.652344 66.378906 86.652344 42.546875 L 92.890625 42.546875 L 92.890625 112.046875 L 86.652344 112.046875 C 86.652344 87.988281 79.523438 80.414063 57.027344 80.414063 L 42.101563 80.414063 L 42.101563 133.652344 C 42.101563 152.589844 46.558594 153.035156 68.164063 153.035156 L 71.0625 153.035156 C 103.136719 153.035156 117.171875 142.117188 121.183594 107.8125 L 126.75 107.8125 L 125.859375 159.714844 L 0 159.714844 "/>
<g clip-path="url(#clip1)" clip-rule="nonzero">
<path style=" stroke:none;fill-rule:nonzero;fill:rgb(0%,68.199158%,93.699646%);fill-opacity:1;" d="M 147.464844 95.785156 L 153.035156 95.785156 C 160.609375 135.210938 181.101563 155.929688 207.832031 155.929688 C 226.546875 155.929688 238.796875 143.230469 238.796875 126.96875 C 238.796875 111.15625 230.332031 100.683594 211.84375 94.003906 C 189.566406 85.984375 172.636719 80.859375 162.167969 72.617188 C 151.476563 64.152344 146.351563 53.90625 146.351563 41.207031 C 146.351563 16.929688 164.617188 -0.00390625 192.238281 -0.00390625 C 214.738281 -0.00390625 226.769531 16.035156 231 16.035156 C 232.558594 16.035156 234.5625 13.808594 237.015625 9.574219 L 240.800781 3.5625 L 246.371094 3.5625 L 246.371094 56.800781 L 240.800781 56.800781 C 233.003906 24.5 213.179688 6.679688 190.679688 6.679688 C 173.527344 6.679688 162.167969 16.929688 162.167969 33.410156 C 162.167969 50.785156 173.527344 57.023438 196.25 64.597656 C 213.179688 70.167969 228.773438 74.175781 240.800781 84.199219 C 251.492188 92.886719 256.617188 103.804688 256.617188 117.390625 C 256.617188 143.230469 235.902344 163.28125 207.386719 163.28125 C 197.140625 163.28125 186.671875 160.160156 177.316406 154.148438 C 169.296875 149.023438 165.285156 143.902344 162.167969 143.902344 C 159.941406 143.902344 156.820313 147.019531 155.484375 151.472656 L 153.035156 159.714844 L 147.464844 159.714844 "/>
</g>
<g clip-path="url(#clip2)" clip-rule="nonzero">
<path style=" stroke:none;fill-rule:nonzero;fill:rgb(0%,68.199158%,93.699646%);fill-opacity:1;" d="M 547.207031 3.472656 L 655.832031 3.472656 L 655.832031 35.511719 L 589.34375 35.511719 L 589.34375 64.476563 L 651.882813 64.476563 L 651.882813 96.515625 L 589.34375 96.515625 L 589.34375 127.679688 L 658.246094 127.679688 L 658.246094 159.714844 L 547.207031 159.714844 "/>
</g>
<path style=" stroke:none;fill-rule:nonzero;fill:rgb(0%,68.199158%,93.699646%);fill-opacity:1;" d="M 452.234375 153.035156 C 437.980469 153.035156 435.527344 150.582031 435.527344 133.207031 L 435.527344 25.390625 C 435.527344 11.804688 438.425781 10.246094 453.570313 10.246094 C 492.332031 10.246094 506.8125 30.515625 506.8125 82.863281 C 506.8125 132.316406 492.554688 153.035156 452.234375 153.035156 M 294.519531 103.136719 L 321.921875 26.507813 L 348.429688 103.136719 Z M 492.554688 10.914063 C 479.410156 4.675781 465.378906 3.5625 448.894531 3.5625 L 393.203125 3.5625 L 393.203125 9.578125 L 401.890625 9.578125 C 413.253906 9.578125 414.8125 12.917969 414.8125 25.167969 L 414.8125 137.441406 C 414.8125 149.679688 413.285156 152.90625 402.5 153.023438 C 390.46875 152.902344 387.578125 148.636719 383.625 137.21875 L 335.730469 3.5625 L 323.257813 3.5625 L 279.375 124.964844 C 272.292969 144.222656 263.222656 152.910156 248.6875 153.023438 L 248.6875 159.714844 L 301.648438 159.714844 L 301.648438 153.035156 L 300.757813 153.035156 C 288.953125 153.035156 282.9375 148.800781 282.9375 141.003906 C 282.9375 136.550781 283.828125 131.871094 285.164063 128.304688 L 291.625 111.15625 L 351.546875 111.15625 L 361.796875 140.558594 C 362.6875 143.230469 363.132813 145.238281 363.132813 146.351563 C 363.132813 152.589844 358.675781 153.035156 347.316406 153.035156 L 342.636719 153.035156 L 342.636719 159.714844 L 450.007813 159.714844 C 469.835938 159.714844 485.871094 158.15625 501.464844 146.574219 C 520.175781 132.761719 531.316406 108.925781 531.316406 80.636719 C 531.316406 47.890625 515.945313 22.050781 492.554688 10.914063 "/>
</g>
</svg>
